<?xml version="1.0" standalone="no"?>
<!DOCTYPE svg PUBLIC "-//W3C//DTD SVG 20010904//EN"
 "http://www.w3.org/TR/2001/REC-SVG-20010904/DTD/svg10.dtd">
<svg version="1.0" xmlns="http://www.w3.org/2000/svg"
 width="302.000000pt" height="302.000000pt" viewBox="0 0 302.000000 302.000000"
 preserveAspectRatio="xMidYMid meet">
<metadata>
Created by potrace 1.14, written by Peter Selinger 2001-2017
</metadata>
<g transform="translate(0.000000,302.000000) scale(0.100000,-0.100000)"
fill="#000000" stroke="none">
<path d="M2 1988 l3 -551 38 0 c20 1 45 2 55 2 16 1 17 31 16 496 l0 495 948
0 948 0 0 -180 c0 -99 -3 -181 -7 -181 -5 -1 -44 -3 -88 -4 -44 -2 -85 -3 -92
-4 -6 -1 -15 -11 -18 -22 -17 -52 -379 -785 -406 -820 -15 -20 -16 -20 -40 28
-26 51 -124 235 -169 318 -15 28 -56 104 -90 170 -35 66 -82 154 -104 195 -23
41 -47 87 -55 103 -8 15 -19 27 -25 28 -52 4 -110 3 -117 -2 -9 -5 10 -46 76
-164 27 -48 68 -124 122 -225 46 -86 219 -404 270 -497 18 -34 53 -98 76 -142
l43 -79 18 31 c10 18 53 100 96 182 42 83 112 218 155 300 43 83 116 224 163
315 46 91 86 167 89 169 2 3 51 5 108 5 l105 0 1 25 c1 33 1 543 0 554 -1 4
-478 7 -1061 7 l-1060 0 2 -552z"/>
<path d="M2909 2508 c0 -44 0 -2010 0 -2025 1 -9 19 -13 56 -13 l55 0 0 1035
0 1035 -55 0 -55 0 -1 -32z"/>
<path d="M210 2063 c0 -2 92 -180 190 -368 31 -60 94 -182 140 -270 46 -88
107 -206 136 -262 52 -98 53 -103 32 -104 -13 0 -177 -1 -365 -1 l-343 -1 0
-293 0 -294 1063 0 1062 0 -2 537 c-1 296 -2 545 -2 553 -1 12 -14 15 -56 15
l-55 0 0 -497 0 -497 -948 0 -948 1 0 184 0 184 337 0 338 0 30 60 31 60 -246
493 c-135 270 -248 494 -250 496 -3 4 -144 8 -144 4z"/>
</g>
</svg>
